<svg width="78" height="20" viewBox="0 0 78 20" fill="none" xmlns="http://www.w3.org/2000/svg">
<path d="M20.8105 5.50586C25.2879 5.50606 27.5263 8.61714 27.5264 12.7393C27.5264 16.702 25.0277 20 20.5498 20C16.0459 20 13.8066 16.8616 13.8066 12.7393C13.8067 8.80317 16.3327 5.50586 20.8105 5.50586ZM44.1533 0C44.0493 0.930836 44.0498 3.59025 44.0498 6.51562C45.1952 5.82431 46.4192 5.50488 47.7207 5.50488C51.4693 5.50508 53.1875 8.13865 53.1875 12.0215C53.1874 16.782 50.1148 20 44.9863 20C43.3464 19.9999 41.6284 19.707 40.0146 19.3613C40.1186 17.4188 40.1967 5.69257 40.0146 3.48438C39.8323 2.39396 39.5717 1.88787 38.7646 1.75488L38.1396 1.64941V1.11719L44.1533 0ZM61.1631 5.50586C64.9376 5.50605 66.7334 8.35169 66.7334 12.1016H58.4033C58.2992 15.5056 59.9134 17.9785 63.1416 17.9785C64.5732 17.9785 65.3024 17.606 66.1875 16.9678L66.5518 17.4199C65.6667 18.6965 63.6882 19.9999 61.1631 20C57.1277 20 54.2637 17.0478 54.2637 12.8457C54.2637 9.09574 56.6069 5.50586 61.1631 5.50586ZM73.0791 5.50586C74.6931 5.50586 76.125 5.77138 77.1924 6.25L77.2969 9.81348L76.6719 10C75.8648 7.52667 74.7714 6.51562 73.1572 6.51562C72.0901 6.51571 71.2833 7.34046 71.2832 8.53711C71.2832 9.7339 72.1682 10.3722 74.6934 11.3828C77.0104 12.2871 78 13.4044 78 15.3193C77.9999 18.1649 75.761 19.9999 72.2725 20C70.5543 20 68.5753 19.6279 67.5078 19.1758L67.4297 15.1328L68.0547 14.9473C69.0441 17.6864 70.2942 18.6973 71.9863 18.6973C73.4179 18.6971 74.2246 17.686 74.2246 16.5957C74.2246 15.5054 73.6 14.8674 71.3613 14.043C69.2005 13.2983 67.6904 12.2869 67.6904 9.91992C67.6906 7.5265 69.7471 5.50595 73.0791 5.50586ZM15.8809 5.87793L14.9697 6.06445C14.0846 3.11252 12.8349 1.43674 10.4141 1.43652H7.39355C7.26337 3.93649 7.21094 6.78242 7.21094 9.49512L9.1377 9.41504C10.4914 9.36184 11.1166 8.32485 11.377 6.75586H12.2881V13.2715H11.377C11.1166 11.7023 10.4915 10.6655 9.1377 10.6123L7.2373 10.5586C7.2373 12.5532 7.28942 14.4415 7.39355 16.0371C7.49768 17.7923 7.91422 18.4845 9.05957 18.6973L10.127 18.8828V19.6279H0V18.8828L0.884766 18.6973C2.03026 18.4579 2.49942 17.7924 2.68164 16.0371C2.86387 13.2178 2.96802 7.26063 2.68164 3.96289C2.49942 2.20762 2.05627 1.43669 0.884766 1.30371L0 1.19727V0.373047H15.8027L15.8809 5.87793ZM33.4141 8.72363C34.8458 5.42597 37.5535 5.00005 39.0635 5.93066L37.6318 9.68066C35.8354 8.48398 33.8827 8.98965 33.4141 9.62793C33.336 11.8354 33.3365 15.3192 33.5186 17.0479C33.5966 18.1648 33.8834 18.7495 34.7686 18.8027L35.8359 18.8828V19.6279H27.5049V18.8828L28.1299 18.8027C28.9367 18.6962 29.3008 18.1646 29.3789 17.0479C29.4832 15.133 29.5612 11.2766 29.3789 9.0957C29.3009 7.89909 28.9367 7.4473 28.1299 7.34082L27.5049 7.26074V6.70215L33.5186 5.50488L33.4141 8.72363ZM20.5498 6.43652C18.5712 6.43652 18.0244 9.1755 18.0244 12.7393C18.0244 16.2233 18.9361 19.0693 20.7324 19.0693C22.7888 19.069 23.3096 16.3295 23.3096 12.7393C23.3095 9.25533 22.4242 6.43658 20.5498 6.43652ZM45.7422 7.1543C45.2995 7.1543 44.6745 7.23455 44.0498 7.44727C43.9718 12.2073 44.0493 17.6319 44.1533 18.9092C44.4137 19.0155 44.9086 19.0693 45.2471 19.0693C47.7461 19.0693 48.9697 16.1433 48.9697 12.4199C48.9697 9.54789 48.1628 7.1546 45.7422 7.1543ZM60.8242 6.43652C59.2881 6.43658 58.4814 8.98977 58.4033 11.0908L62.6201 11.0107C62.6201 9.17562 62.3341 6.43652 60.8242 6.43652ZM69.4717 0.262695C70.2091 0.262695 70.656 0.620077 70.6992 1.3623H70.0107C69.9784 0.977566 69.7892 0.829102 69.4717 0.829102C69.1596 0.829191 68.9873 1.0057 68.9873 1.28613C68.9874 1.59379 69.1168 1.72572 69.6279 1.89062C70.3332 2.10512 70.7803 2.36415 70.7803 3.13965C70.7801 3.85439 70.2951 4.30566 69.5361 4.30566C68.675 4.30553 68.234 3.87062 68.207 3.08984H68.9121C68.9337 3.51312 69.0789 3.73815 69.5361 3.73828C69.8538 3.73828 70.0645 3.54608 70.0645 3.20508C70.0644 2.83125 69.8759 2.70435 69.3809 2.54492C68.6541 2.31394 68.2872 2.03373 68.2871 1.34082C68.2871 0.697392 68.7504 0.262791 69.4717 0.262695ZM54.4404 1.96191H55.7109V0.317383H56.4424V4.25H55.7109V2.57227H54.4404V4.25H53.708V0.317383H54.4404V1.96191ZM58.2715 0.317383C59.0897 0.317383 59.5643 0.664057 59.5645 1.40625V1.53906C59.5643 2.10531 59.2836 2.38036 58.8906 2.50684L59.7305 4.25H58.9502L58.1855 2.62793H57.8359V4.25H57.1035V0.317383H58.2715ZM61.3232 3.45801L62.0771 0.317383H62.7549L61.7324 4.25H60.8389L59.8105 0.317383H60.5693L61.3232 3.45801ZM65.6162 4.25H64.8623L64.6475 3.34863H63.5107L63.3008 4.25H62.6172L63.624 0.317383H64.6201L65.6162 4.25ZM67.9912 0.90625H67.1084L67.1025 4.25H66.3701V0.90625H65.4932V0.317383H67.9912V0.90625ZM72.0439 2.0498L73.1904 0.317383H73.9609L72.7012 2.16016L74.0205 4.25H73.1904L72.0439 2.40234V4.25H71.3115V0.317383H72.0439V2.0498ZM77.1592 4.25H76.4062L76.1904 3.34863H75.0547L74.8447 4.25H74.1611L75.168 0.317383H76.1631L77.1592 4.25ZM63.6406 2.80371H64.5176L64.0762 0.939453L63.6406 2.80371ZM75.1836 2.80371H76.0615L75.6201 0.939453L75.1836 2.80371ZM57.8359 2.10547H58.2559C58.6488 2.10542 58.8477 1.93439 58.8477 1.54395V1.42285C58.8475 1.03817 58.6379 0.895549 58.2559 0.895508H57.8359V2.10547Z" fill="#A0A0A0"/>
</svg>
